<svg id="Capa_1" enable-background="new 0 0 510.568 510.568" height="512" viewBox="0 0 510.568 510.568" width="512" xmlns="http://www.w3.org/2000/svg"><g><g><g><path d="m336.531 383.797h45.165c17.603 0 31.873-14.27 31.873-31.873v-70.809c0-17.603-14.27-31.873-31.873-31.873h-45.165v-63.746h55.79c46.941 0 84.994 38.053 84.994 84.994v92.058c0 46.941-38.053 84.994-84.994 84.994h-55.79z" fill="#ffde55"/></g></g><g><path d="m53.142 122.471v356.224c0 17.603 14.27 31.873 31.873 31.873h114.822l10-195.764-10-202.333z" fill="#ffde55"/><path d="m199.836 112.471v398.097h114.822c17.603 0 31.873-14.27 31.873-31.873v-356.224z" fill="#ffcd00"/></g><g><path d="m146.907 24.681c-6.413 7.635-17.468 9.693-26.09 4.686-9.538-5.539-20.789-8.452-32.769-7.744-29.57 1.748-53.374 25.891-54.732 55.482-.822 17.913 6.444 34.143 18.45 45.366h65.122v84.212c0 17.603 14.27 31.873 31.873 31.873 17.603 0 31.873-14.27 31.873-31.873v-84.212h19.203l10-46.237-10.001-76.234c-21.248 0-40.255 9.591-52.929 24.681z" fill="#fff5cc"/><path d="m366.357 77.109c-1.356-29.591-25.158-53.736-54.728-55.486-11.98-.708-23.232 2.204-32.771 7.743-8.623 5.008-19.678 2.949-26.092-4.687-12.675-15.088-31.682-24.679-52.93-24.679v122.471h148.071c12.005-11.222 19.271-27.451 18.45-45.362z" fill="#ffe9cc"/></g></g></svg>